<svg width="26" height="29" viewBox="0 0 26 29" fill="none" xmlns="http://www.w3.org/2000/svg">
<path d="M19.5 8V23.5C19.5 25.7091 17.7091 27.5 15.5 27.5H10.5C8.29086 27.5 6.5 25.7091 6.5 23.5V8C6.5 4.41015 9.41015 1.5 13 1.5C16.5899 1.5 19.5 4.41015 19.5 8Z" fill="#2AB119" stroke="#282828"/>
<path d="M15.3332 4.44912C13.4665 2.4546 11.4443 3.61807 10.6665 4.44912L11.2498 5.69567H14.7498L15.3332 4.44912Z" fill="white"/>
<path d="M15.3335 6.2826L16.5002 4.52173C17.4335 5.46086 17.6668 7.65216 17.6668 8.63042L15.3335 6.2826Z" fill="white"/>
<path d="M15.3335 6.2826L16.5002 4.52173C17.4335 5.46086 17.6668 7.65216 17.6668 8.63042L15.3335 6.2826Z" fill="white"/>
<path d="M10.6665 6.2826L9.49984 4.52173C8.5665 5.46086 8.33317 7.65216 8.33317 8.63042L10.6665 6.2826Z" fill="white"/>
<path d="M15 10.5L22.5 2L20.5 9H22.5L15 18L17.5 10.5H15Z" fill="#CC1515" stroke="#282828" stroke-linejoin="round"/>
</svg>
