<svg width="14" height="27" viewBox="0 0 14 27" fill="none" xmlns="http://www.w3.org/2000/svg">
<path d="M13.5 7V22.5C13.5 24.7091 11.7091 26.5 9.5 26.5H4.5C2.29086 26.5 0.5 24.7091 0.5 22.5V7C0.5 3.41015 3.41015 0.5 7 0.5C10.5899 0.5 13.5 3.41015 13.5 7Z" fill="#2AB119" stroke="#282828"/>
<path d="M9.33317 3.44912C7.4665 1.4546 5.44428 2.61807 4.6665 3.44912L5.24984 4.69567H8.74984L9.33317 3.44912Z" fill="white"/>
<path d="M9.3335 5.2826L10.5002 3.52173C11.4335 4.46086 11.6668 6.65216 11.6668 7.63042L9.3335 5.2826Z" fill="white"/>
<path d="M9.3335 5.2826L10.5002 3.52173C11.4335 4.46086 11.6668 6.65216 11.6668 7.63042L9.3335 5.2826Z" fill="white"/>
<path d="M4.6665 5.2826L3.49984 3.52173C2.5665 4.46086 2.33317 6.65216 2.33317 7.63042L4.6665 5.2826Z" fill="white"/>
</svg>
