<svg width="24" height="29" viewBox="0 0 24 29" fill="none" xmlns="http://www.w3.org/2000/svg">
<path d="M18.5 21V5.5C18.5 3.29086 16.7091 1.5 14.5 1.5H9.5C7.29086 1.5 5.5 3.29086 5.5 5.5V21C5.5 24.5899 8.41015 27.5 12 27.5C15.5899 27.5 18.5 24.5899 18.5 21Z" fill="#D35A24" stroke="#282828"/>
<path d="M14.3332 24.5509C12.4665 26.5454 10.4443 25.3819 9.6665 24.5509L10.2498 23.3043H13.7498L14.3332 24.5509Z" fill="white"/>
<path d="M14.3335 22.7174L15.5002 24.4783C16.4335 23.5391 16.6668 21.3478 16.6668 20.3696L14.3335 22.7174Z" fill="white"/>
<path d="M14.3335 22.7174L15.5002 24.4783C16.4335 23.5391 16.6668 21.3478 16.6668 20.3696L14.3335 22.7174Z" fill="white"/>
<path d="M9.6665 22.7174L8.49984 24.4783C7.5665 23.5391 7.33317 21.3478 7.33317 20.3696L9.6665 22.7174Z" fill="white"/>
<path d="M13 10.5L20.5 2L18.5 9H20.5L13 18L15.5 10.5H13Z" fill="#CC1515" stroke="#282828" stroke-linejoin="round"/>
</svg>
