<svg width="14" height="27" viewBox="0 0 14 27" fill="none" xmlns="http://www.w3.org/2000/svg">
<path d="M13.5 20V4.5C13.5 2.29086 11.7091 0.5 9.5 0.5H4.5C2.29086 0.5 0.5 2.29086 0.5 4.5V20C0.5 23.5899 3.41015 26.5 7 26.5C10.5899 26.5 13.5 23.5899 13.5 20Z" fill="#D35A24" stroke="#282828"/>
<path d="M9.33317 23.5509C7.4665 25.5454 5.44428 24.3819 4.6665 23.5509L5.24984 22.3043H8.74984L9.33317 23.5509Z" fill="white"/>
<path d="M9.3335 21.7174L10.5002 23.4783C11.4335 22.5391 11.6668 20.3478 11.6668 19.3696L9.3335 21.7174Z" fill="white"/>
<path d="M9.3335 21.7174L10.5002 23.4783C11.4335 22.5391 11.6668 20.3478 11.6668 19.3696L9.3335 21.7174Z" fill="white"/>
<path d="M4.6665 21.7174L3.49984 23.4783C2.5665 22.5391 2.33317 20.3478 2.33317 19.3696L4.6665 21.7174Z" fill="white"/>
</svg>
